<svg xmlns="http://www.w3.org/2000/svg" viewBox="0 0 1600 1400" role="img" aria-labelledby="title desc">
  <title id="title">Modern collection placeholder</title>
  <desc id="desc">Generic placeholder art for the Modern collection card.</desc>
  <defs>
    <linearGradient id="bg" x1="0%" y1="0%" x2="100%" y2="100%">
      <stop offset="0%" stop-color="#f1efe9"/>
      <stop offset="100%" stop-color="#cfc8bb"/>
    </linearGradient>
    <linearGradient id="glass" x1="0%" y1="0%" x2="100%" y2="100%">
      <stop offset="0%" stop-color="#27252d" stop-opacity="0.94"/>
      <stop offset="100%" stop-color="#463f4b" stop-opacity="0.86"/>
    </linearGradient>
  </defs>
  <rect width="1600" height="1400" fill="url(#bg)"/>
  <circle cx="1240" cy="260" r="260" fill="#ffffff" opacity="0.28"/>
  <circle cx="300" cy="1160" r="260" fill="#ffffff" opacity="0.16"/>
  <path d="M930 180 1110 180 930 360" fill="none" stroke="#18171d" stroke-width="28" stroke-linecap="round" stroke-linejoin="round" opacity="0.12"/>
  <path d="M760 310 1175 310" fill="none" stroke="#18171d" stroke-width="26" stroke-linecap="round" opacity="0.12"/>
  <g fill="none" stroke="#18171d" stroke-width="18" opacity="0.1">
    <path d="M220 270h300"/>
    <path d="M220 318h220"/>
    <path d="M220 366h180"/>
  </g>
  <g fill="none" stroke="#f5efe8" stroke-width="22" stroke-linecap="round" stroke-linejoin="round" opacity="0.92">
    <path d="M272 1004 422 918"/>
    <path d="M1188 860 1326 918"/>
    <path d="M690 888h212"/>
  </g>
  <g>
    <path d="M250 954c78-28 190-54 286-54h246c54 0 98 44 98 98v84c0 54-44 98-98 98H448c-92 0-172-54-208-134l-34-76c-16-38 2-82 44-96Z" fill="url(#glass)"/>
    <path d="M1394 954c42 14 60 58 44 96l-34 76c-36 80-116 134-208 134H862c-54 0-98-44-98-98v-84c0-54 44-98 98-98h246c96 0 208 26 286 54Z" fill="url(#glass)"/>
    <path d="M250 954c78-28 190-54 286-54h246c54 0 98 44 98 98v84c0 54-44 98-98 98H448c-92 0-172-54-208-134l-34-76c-16-38 2-82 44-96Z" fill="none" stroke="#241f28" stroke-width="18"/>
    <path d="M1394 954c42 14 60 58 44 96l-34 76c-36 80-116 134-208 134H862c-54 0-98-44-98-98v-84c0-54 44-98 98-98h246c96 0 208 26 286 54Z" fill="none" stroke="#241f28" stroke-width="18"/>
    <path d="M690 888c34-26 178-26 212 0" fill="none" stroke="#241f28" stroke-width="18" stroke-linecap="round"/>
  </g>
  <g fill="#1d1b21" font-family="Manrope, Arial, sans-serif">
    <text x="220" y="150" font-size="44" font-weight="800" letter-spacing="14" opacity="0.54">MODERN PLACEHOLDER</text>
    <text x="220" y="210" font-size="24" font-weight="600" letter-spacing="6" opacity="0.36">SWAP THIS IMAGE WITH YOUR FINAL CAMPAIGN VISUAL</text>
  </g>
</svg>
